<svg width="24" height="24" viewBox="0 0 24 24" fill="none" xmlns="http://www.w3.org/2000/svg">
<path d="M12 0C5.3728 0 0 5.3728 0 12C0 18.6272 5.3728 24 12 24C18.6272 24 24 18.6272 24 12C24 5.3728 18.6272 0 12 0ZM17.6 12C18.04 12 18.4 12.36 18.4 12.8V17.6C18.4 18.04 18.04 18.4 17.6 18.4H8.4C7.96 18.4 7.6 18.04 7.6 17.6V17.4L5.6 18.4V12L7.6 13V12.8C7.6 12.36 7.96 12 8.4 12H10.4C9.55131 12 8.73737 11.6629 8.13726 11.0627C7.53714 10.4626 7.2 9.64869 7.2 8.8C7.2 7.95131 7.53714 7.13737 8.13726 6.53726C8.73737 5.93714 9.55131 5.6 10.4 5.6C10.9718 5.5999 11.5332 5.75315 12.0257 6.04378C12.5182 6.3344 12.9237 6.75177 13.2 7.2524C13.4763 6.75177 13.8819 6.3344 14.3743 6.04378C14.8668 5.75315 15.4282 5.5999 16 5.6C16.8487 5.6 17.6626 5.93714 18.2627 6.53726C18.8629 7.13737 19.2 7.95131 19.2 8.8C19.2 9.64869 18.8629 10.4626 18.2627 11.0627C17.6626 11.6629 16.8487 12 16 12H17.6Z" fill="#252729"/>
</svg>
