<svg width="24" height="24" viewBox="0 0 24 24" fill="none" xmlns="http://www.w3.org/2000/svg">
<g clip-path="url(#clip0_73_7226)">
<path d="M12 0C5.37281 0 0 5.37281 0 12C0 15.3141 1.34344 18.3141 3.51469 20.4853L1.22906 22.7709C0.775312 23.2247 1.09688 24 1.73813 24H12C18.6272 24 24 18.6272 24 12C24 5.37281 18.6272 0 12 0Z" fill="#FF4500"/>
<path d="M18.8022 14.3934C20.3498 14.3934 21.6044 13.1389 21.6044 11.5912C21.6044 10.0436 20.3498 8.78906 18.8022 8.78906C17.2546 8.78906 16 10.0436 16 11.5912C16 13.1389 17.2546 14.3934 18.8022 14.3934Z" fill="url(#paint0_radial_73_7226)"/>
<path d="M5.19672 14.3934C6.74432 14.3934 7.99891 13.1389 7.99891 11.5912C7.99891 10.0436 6.74432 8.78906 5.19672 8.78906C3.64911 8.78906 2.39453 10.0436 2.39453 11.5912C2.39453 13.1389 3.64911 14.3934 5.19672 14.3934Z" fill="url(#paint1_radial_73_7226)"/>
<path d="M12.0075 20C16.4256 20 20.0072 17.3137 20.0072 14C20.0072 10.6863 16.4256 8 12.0075 8C7.58939 8 4.00781 10.6863 4.00781 14C4.00781 17.3137 7.58939 20 12.0075 20Z" fill="url(#paint2_radial_73_7226)"/>
<path d="M9.63991 13.4184C9.59304 14.4347 8.91804 14.8041 8.13335 14.8041C7.34866 14.8041 6.74866 14.2837 6.79554 13.2675C6.84241 12.2512 7.51741 11.5781 8.3021 11.5781C9.08679 11.5781 9.68679 12.4022 9.63991 13.4184Z" fill="#842123"/>
<path d="M17.218 13.2675C17.2649 14.2838 16.6659 14.8041 15.8802 14.8041C15.0946 14.8041 14.4196 14.4356 14.3737 13.4184C14.3268 12.4022 14.9259 11.5781 15.7115 11.5781C16.4971 11.5781 17.1721 12.2503 17.218 13.2675Z" fill="#842123"/>
<path d="M14.3735 13.5034C14.4176 14.455 15.0485 14.8 15.7835 14.8C16.5185 14.8 17.0791 14.2834 17.0351 13.3319C16.991 12.3803 16.3601 11.7578 15.6251 11.7578C14.8901 11.7578 14.3295 12.5519 14.3735 13.5034Z" fill="url(#paint3_radial_73_7226)"/>
<path d="M9.64055 13.5034C9.59649 14.455 8.96555 14.8 8.23055 14.8C7.49555 14.8 6.93493 14.2834 6.97899 13.3319C7.02305 12.3803 7.65399 11.7578 8.38899 11.7578C9.12399 11.7578 9.68462 12.5519 9.64055 13.5034Z" fill="url(#paint4_radial_73_7226)"/>
<path d="M12.0071 15.4766C11.0152 15.4766 10.0646 15.5244 9.18519 15.6116C9.03519 15.6266 8.93957 15.7794 8.99769 15.9163C9.48988 17.0703 10.6514 17.8813 12.0071 17.8813C13.3627 17.8813 14.5233 17.0703 15.0164 15.9163C15.0746 15.7794 14.9799 15.6266 14.8289 15.6116C13.9496 15.5244 12.9989 15.4766 12.0071 15.4766Z" fill="#BBCFDA"/>
<path d="M12.0056 15.7031C11.0165 15.7031 10.0687 15.7519 9.19217 15.8409C9.04217 15.8559 8.94748 16.0116 9.0056 16.1503C9.49685 17.3231 10.6547 18.1462 12.0047 18.1462C13.3547 18.1462 14.5134 17.3222 15.0047 16.1503C15.0628 16.0116 14.9681 15.8559 14.8181 15.8409C13.9415 15.7519 12.9937 15.7031 12.0047 15.7031H12.0056Z" fill="#252729"/>
<path d="M12.0053 15.5859C11.0321 15.5859 10.0993 15.6338 9.23589 15.7209C9.0887 15.7359 8.99495 15.8888 9.05214 16.0256C9.53495 17.1797 10.675 17.9906 12.0053 17.9906C13.3356 17.9906 14.4746 17.1797 14.9584 16.0256C15.0156 15.8888 14.9218 15.7359 14.7746 15.7209C13.9121 15.6338 12.9793 15.5859 12.0053 15.5859Z" fill="url(#paint5_radial_73_7226)"/>
<path d="M16.388 7.18219C17.4846 7.18219 18.3736 6.29319 18.3736 5.19656C18.3736 4.09993 17.4846 3.21094 16.388 3.21094C15.2913 3.21094 14.4023 4.09993 14.4023 5.19656C14.4023 6.29319 15.2913 7.18219 16.388 7.18219Z" fill="url(#paint6_radial_73_7226)"/>
<path d="M11.9772 8.2525C11.7391 8.2525 11.5469 8.15313 11.5469 7.99938C11.5469 6.22 12.9944 4.77344 14.7728 4.77344C15.0109 4.77344 15.2031 4.96656 15.2031 5.20375C15.2031 5.44094 15.01 5.63406 14.7728 5.63406C13.4687 5.63406 12.4075 6.69531 12.4075 7.99938C12.4075 8.15313 12.2144 8.2525 11.9772 8.2525Z" fill="url(#paint7_radial_73_7226)"/>
<path d="M9.12047 13.9791C9.12047 14.3475 8.72859 14.5125 8.24578 14.5125C7.76297 14.5125 7.37109 14.3475 7.37109 13.9791C7.37109 13.6106 7.76297 13.3125 8.24578 13.3125C8.72859 13.3125 9.12047 13.6106 9.12047 13.9791Z" fill="#FF6101"/>
<path d="M16.6439 13.9791C16.6439 14.3475 16.252 14.5125 15.7692 14.5125C15.2864 14.5125 14.8945 14.3475 14.8945 13.9791C14.8945 13.6106 15.2864 13.3125 15.7692 13.3125C16.252 13.3125 16.6439 13.6106 16.6439 13.9791Z" fill="#FF6101"/>
<path d="M8.84641 12.9756C9.0183 12.9756 9.15766 12.8237 9.15766 12.6362C9.15766 12.4488 9.0183 12.2969 8.84641 12.2969C8.67451 12.2969 8.53516 12.4488 8.53516 12.6362C8.53516 12.8237 8.67451 12.9756 8.84641 12.9756Z" fill="#FFC49C"/>
<path d="M16.2448 12.9756C16.4167 12.9756 16.5561 12.8237 16.5561 12.6362C16.5561 12.4488 16.4167 12.2969 16.2448 12.2969C16.0729 12.2969 15.9336 12.4488 15.9336 12.6362C15.9336 12.8237 16.0729 12.9756 16.2448 12.9756Z" fill="#FFC49C"/>
</g>
<defs>
<radialGradient id="paint0_radial_73_7226" cx="0" cy="0" r="1" gradientUnits="userSpaceOnUse" gradientTransform="translate(18.8445 10.0826) scale(5.61576 4.89886)">
<stop stop-color="#FEFFFF"/>
<stop offset="0.4" stop-color="#FEFFFF"/>
<stop offset="0.51" stop-color="#F9FCFC"/>
<stop offset="0.62" stop-color="#EDF3F5"/>
<stop offset="0.7" stop-color="#DEE9EC"/>
<stop offset="0.72" stop-color="#D8E4E8"/>
<stop offset="0.76" stop-color="#CCD8DF"/>
<stop offset="0.8" stop-color="#C8D5DD"/>
<stop offset="0.83" stop-color="#CCD6DE"/>
<stop offset="0.85" stop-color="#D8DBE2"/>
<stop offset="0.88" stop-color="#EDE3E9"/>
<stop offset="0.9" stop-color="#FFEBEF"/>
</radialGradient>
<radialGradient id="paint1_radial_73_7226" cx="0" cy="0" r="1" gradientUnits="userSpaceOnUse" gradientTransform="translate(5.23908 10.0826) scale(5.61577 4.89886)">
<stop stop-color="#FEFFFF"/>
<stop offset="0.4" stop-color="#FEFFFF"/>
<stop offset="0.51" stop-color="#F9FCFC"/>
<stop offset="0.62" stop-color="#EDF3F5"/>
<stop offset="0.7" stop-color="#DEE9EC"/>
<stop offset="0.72" stop-color="#D8E4E8"/>
<stop offset="0.76" stop-color="#CCD8DF"/>
<stop offset="0.8" stop-color="#C8D5DD"/>
<stop offset="0.83" stop-color="#CCD6DE"/>
<stop offset="0.85" stop-color="#D8DBE2"/>
<stop offset="0.88" stop-color="#EDE3E9"/>
<stop offset="0.9" stop-color="#FFEBEF"/>
</radialGradient>
<radialGradient id="paint2_radial_73_7226" cx="0" cy="0" r="1" gradientUnits="userSpaceOnUse" gradientTransform="translate(12.221 9.29805) scale(16.9394 11.8936)">
<stop stop-color="#FEFFFF"/>
<stop offset="0.4" stop-color="#FEFFFF"/>
<stop offset="0.51" stop-color="#F9FCFC"/>
<stop offset="0.62" stop-color="#EDF3F5"/>
<stop offset="0.7" stop-color="#DEE9EC"/>
<stop offset="0.72" stop-color="#D8E4E8"/>
<stop offset="0.76" stop-color="#CCD8DF"/>
<stop offset="0.8" stop-color="#C8D5DD"/>
<stop offset="0.83" stop-color="#CCD6DE"/>
<stop offset="0.85" stop-color="#D8DBE2"/>
<stop offset="0.88" stop-color="#EDE3E9"/>
<stop offset="0.9" stop-color="#FFEBEF"/>
</radialGradient>
<radialGradient id="paint3_radial_73_7226" cx="0" cy="0" r="1" gradientUnits="userSpaceOnUse" gradientTransform="translate(15.4966 14.1523) rotate(180) scale(1.41529 2.07776)">
<stop stop-color="#FF6600"/>
<stop offset="0.5" stop-color="#FF4500"/>
<stop offset="0.7" stop-color="#FC4301"/>
<stop offset="0.82" stop-color="#F43F07"/>
<stop offset="0.92" stop-color="#E53812"/>
<stop offset="1" stop-color="#D4301F"/>
</radialGradient>
<radialGradient id="paint4_radial_73_7226" cx="0" cy="0" r="1" gradientUnits="userSpaceOnUse" gradientTransform="translate(8.45373 14.1523) scale(1.41529 2.07776)">
<stop stop-color="#FF6600"/>
<stop offset="0.5" stop-color="#FF4500"/>
<stop offset="0.7" stop-color="#FC4301"/>
<stop offset="0.82" stop-color="#F43F07"/>
<stop offset="0.92" stop-color="#E53812"/>
<stop offset="1" stop-color="#D4301F"/>
</radialGradient>
<radialGradient id="paint5_radial_73_7226" cx="0" cy="0" r="1" gradientUnits="userSpaceOnUse" gradientTransform="translate(12.0333 18.2726) scale(4.99052 3.29162)">
<stop stop-color="#172E35"/>
<stop offset="0.29" stop-color="#0E1C21"/>
<stop offset="0.73" stop-color="#030708"/>
<stop offset="1"/>
</radialGradient>
<radialGradient id="paint6_radial_73_7226" cx="0" cy="0" r="1" gradientUnits="userSpaceOnUse" gradientTransform="translate(16.4351 3.19557) scale(4.38069 4.38069)">
<stop stop-color="#FEFFFF"/>
<stop offset="0.4" stop-color="#FEFFFF"/>
<stop offset="0.51" stop-color="#F9FCFC"/>
<stop offset="0.62" stop-color="#EDF3F5"/>
<stop offset="0.7" stop-color="#DEE9EC"/>
<stop offset="0.72" stop-color="#D8E4E8"/>
<stop offset="0.76" stop-color="#CCD8DF"/>
<stop offset="0.8" stop-color="#C8D5DD"/>
<stop offset="0.83" stop-color="#CCD6DE"/>
<stop offset="0.85" stop-color="#D8DBE2"/>
<stop offset="0.88" stop-color="#EDE3E9"/>
<stop offset="0.9" stop-color="#FFEBEF"/>
</radialGradient>
<radialGradient id="paint7_radial_73_7226" cx="0" cy="0" r="1" gradientUnits="userSpaceOnUse" gradientTransform="translate(14.6088 7.97274) scale(3.59065 3.59065)">
<stop offset="0.48" stop-color="#7A9299"/>
<stop offset="0.67" stop-color="#172E35"/>
<stop offset="0.75"/>
<stop offset="0.82" stop-color="#172E35"/>
</radialGradient>
<clipPath id="clip0_73_7226">
<rect width="24" height="24" fill="white"/>
</clipPath>
</defs>
</svg>
