<svg width="24" height="24" viewBox="0 0 24 24" fill="none" xmlns="http://www.w3.org/2000/svg">
<path d="M0.490902 15.4508C1.97461 20.3948 6.56343 24 11.9935 24C18.6252 24 24.0013 18.6274 24.0013 12C24.0013 5.37262 18.6252 0 11.9935 0C5.6302 0 0.422983 4.94738 0.0117188 11.2028C0.789969 12.5066 1.09204 13.3132 0.490151 15.4508H0.490902Z" fill="url(#paint0_linear_75_7346)"/>
<path d="M11.3735 8.99494L11.3746 9.05419L8.4365 13.3198C7.96069 13.2981 7.48339 13.3817 7.0301 13.5681C6.83277 13.6482 6.64438 13.7487 6.46799 13.8681L0.0157134 11.2104C0.0157134 11.2104 -0.133633 13.6652 0.488517 15.4944L5.04995 17.3754C5.27509 18.3984 5.98055 19.2954 7.01696 19.7267C7.83234 20.0653 8.74885 20.0666 9.5652 19.7304C10.3816 19.3941 11.031 18.7478 11.3709 17.9334C11.5522 17.4996 11.6397 17.0324 11.6276 16.5624L15.8276 13.5606L15.9308 13.5624C18.4468 13.5624 20.4919 11.5127 20.4919 8.99494C20.4919 6.47719 18.4506 4.43494 15.9308 4.42969C13.416 4.42969 11.3698 6.47719 11.3698 8.99494H11.3735ZM10.6681 17.6387C10.1225 18.9512 8.61699 19.5688 7.30853 19.0239C6.72788 18.7801 6.25724 18.3313 5.98618 17.7632L7.471 18.3782C7.70038 18.4736 7.94632 18.5229 8.19478 18.5233C8.44323 18.5237 8.68933 18.4752 8.91901 18.3805C9.14869 18.2858 9.35745 18.1468 9.53336 17.9715C9.70927 17.7961 9.84888 17.5878 9.94422 17.3586C10.1373 16.8953 10.1384 16.3743 9.9474 15.9102C9.75637 15.4461 9.38881 15.0767 8.92544 14.8832L7.38695 14.2476C7.97908 14.0226 8.65226 14.0151 9.28192 14.2764C9.91983 14.5401 10.4076 15.0366 10.6688 15.6714C10.93 16.3063 10.9285 17.0064 10.6651 17.6387M15.9349 12.0381C15.1287 12.0359 14.3562 11.7145 13.7867 11.1442C13.2171 10.574 12.8969 9.80139 12.8962 8.99569C12.8971 8.19012 13.2174 7.41772 13.7869 6.84764C14.3565 6.27756 15.1289 5.95624 15.9349 5.95406C16.7412 5.95605 17.5137 6.27727 18.0834 6.84737C18.6531 7.41748 18.9735 8.18999 18.9744 8.99569C18.9737 9.80152 18.6534 10.5742 18.0837 11.1445C17.514 11.7148 16.7413 12.0361 15.9349 12.0381ZM13.658 8.99081C13.6575 8.38545 13.8975 7.80465 14.3253 7.37607C14.7531 6.94749 15.3337 6.70618 15.9394 6.70519C17.1984 6.70519 18.2224 7.72894 18.2224 8.99081C18.2227 9.59631 17.9824 10.1771 17.5543 10.6056C17.1262 11.0341 16.5453 11.2751 15.9394 11.2757C15.3338 11.2748 14.7532 11.0336 14.3253 10.6052C13.8975 10.1768 13.6577 9.59611 13.658 8.99081Z" fill="white"/>
<defs>
<linearGradient id="paint0_linear_75_7346" x1="1199.49" y1="0" x2="1199.49" y2="2400" gradientUnits="userSpaceOnUse">
<stop stop-color="#111D2E"/>
<stop offset="0.212" stop-color="#051839"/>
<stop offset="0.407" stop-color="#0A1B48"/>
<stop offset="0.581" stop-color="#132E62"/>
<stop offset="0.738" stop-color="#144B7E"/>
<stop offset="0.873" stop-color="#136497"/>
<stop offset="1" stop-color="#1387B8"/>
</linearGradient>
</defs>
</svg>
