<svg width="24" height="24" viewBox="0 0 24 24" fill="none" xmlns="http://www.w3.org/2000/svg">
<g clip-path="url(#clip0_73_7287)">
<path d="M12 24C18.6274 24 24 18.6274 24 12C24 5.37258 18.6274 0 12 0C5.37258 0 0 5.37258 0 12C0 18.6274 5.37258 24 12 24Z" fill="url(#paint0_linear_73_7287)"/>
<path fill-rule="evenodd" clip-rule="evenodd" d="M5.43104 11.8759C8.92928 10.3518 11.262 9.34696 12.4292 8.86149C15.7617 7.47538 16.4542 7.2346 16.9055 7.22665C17.0048 7.2249 17.2267 7.2495 17.3705 7.36616C17.4919 7.46467 17.5253 7.59774 17.5413 7.69114C17.5573 7.78453 17.5772 7.99729 17.5614 8.16354C17.3808 10.061 16.5994 14.6657 16.2018 16.7909C16.0336 17.6902 15.7024 17.9917 15.3817 18.0212C14.6849 18.0853 14.1557 17.5607 13.4808 17.1182C12.4246 16.4259 11.8279 15.9949 10.8028 15.3194C9.61798 14.5386 10.386 14.1095 11.0612 13.4082C11.2379 13.2247 14.3083 10.4319 14.3677 10.1786C14.3752 10.1469 14.3821 10.0288 14.3119 9.96641C14.2417 9.90404 14.1382 9.92537 14.0635 9.94233C13.9575 9.96637 12.2703 11.0816 9.00179 13.2879C8.52287 13.6168 8.08909 13.777 7.70043 13.7686C7.27197 13.7593 6.44778 13.5263 5.83508 13.3272C5.08358 13.0829 4.4863 12.9537 4.53831 12.5389C4.5654 12.3228 4.86298 12.1018 5.43104 11.8759Z" fill="#F8FAFF"/>
</g>
<defs>
<linearGradient id="paint0_linear_73_7287" x1="12" y1="0" x2="12" y2="23.822" gradientUnits="userSpaceOnUse">
<stop stop-color="#2AABEE"/>
<stop offset="1" stop-color="#229ED9"/>
</linearGradient>
<clipPath id="clip0_73_7287">
<rect width="24" height="24" fill="white"/>
</clipPath>
</defs>
</svg>
