<svg width="24" height="24" viewBox="0 0 24 24" fill="none" xmlns="http://www.w3.org/2000/svg">
<path d="M17.1752 8.66444C18.7186 9.77162 20.6093 10.4231 22.6513 10.4231V6.47959C22.2648 6.47967 21.8794 6.43923 21.5013 6.35884V9.46291C19.4594 9.46291 17.569 8.81147 16.0252 7.70438V15.7519C16.0252 19.7776 12.7733 23.0409 8.76211 23.0409C7.26544 23.0409 5.87434 22.5868 4.71875 21.808C6.03766 23.1614 7.87699 24.001 9.91187 24.001C13.9233 24.001 17.1754 20.7377 17.1754 16.7118V8.66444H17.1752ZM18.5939 4.68597C17.8052 3.8212 17.2873 2.70365 17.1752 1.46815V0.960938H16.0854C16.3598 2.53126 17.2954 3.87285 18.5939 4.68597ZM7.25584 18.7188C6.81516 18.1389 6.57702 17.4296 6.57809 16.7002C6.57809 14.859 8.06549 13.3661 9.90055 13.3661C10.2425 13.366 10.5825 13.4186 10.9084 13.5223V9.49075C10.5275 9.43836 10.1431 9.41612 9.75888 9.42428V12.5623C9.43272 12.4585 9.09262 12.4058 8.75055 12.4061C6.91549 12.4061 5.42816 13.8988 5.42816 15.7403C5.42816 17.0424 6.17162 18.1696 7.25584 18.7188Z" fill="#FF004F"/>
<path d="M16.025 7.7043C17.5688 8.81139 19.4592 9.46283 21.501 9.46283V6.35876C20.3613 6.11511 19.3523 5.51738 18.5937 4.68597C17.2951 3.87276 16.3595 2.53118 16.0852 0.960938H13.2226V16.7116C13.2161 18.5478 11.7313 20.0346 9.90016 20.0346C8.82111 20.0346 7.86248 19.5184 7.25536 18.7188C6.17122 18.1696 5.42777 17.0423 5.42777 15.7404C5.42777 13.8991 6.91509 12.4062 8.75015 12.4062C9.10174 12.4062 9.44061 12.4611 9.75849 12.5624V9.42436C5.81775 9.50607 2.64844 12.7375 2.64844 16.7117C2.64844 18.6956 3.43767 20.494 4.7186 21.8081C5.87419 22.5868 7.26529 23.041 8.76196 23.041C12.7732 23.041 16.0251 19.7775 16.0251 15.7519V7.7043H16.025Z" fill="black"/>
<path d="M21.5025 6.3578V5.51848C20.4748 5.52005 19.4672 5.23119 18.5952 4.68493C19.3671 5.53306 20.3835 6.11787 21.5025 6.3578ZM16.0867 0.959983C16.0605 0.809911 16.0404 0.658851 16.0265 0.507214V0H12.074V15.7508C12.0677 17.5868 10.5829 19.0736 8.75164 19.0736C8.214 19.0736 7.70638 18.9455 7.25685 18.7179C7.86397 19.5174 8.82259 20.0336 9.90164 20.0336C11.7326 20.0336 13.2177 18.5469 13.2241 16.7107V0.959983H16.0867ZM9.76014 9.42341V8.52989C9.42988 8.48459 9.09691 8.46186 8.76353 8.46202C4.75192 8.46194 1.5 11.7254 1.5 15.7508C1.5 18.2745 2.77806 20.4987 4.72017 21.807C3.43924 20.493 2.65001 18.6944 2.65001 16.7106C2.65001 12.7365 5.81924 9.50511 9.76014 9.42341Z" fill="#00F2EA"/>
</svg>
