<svg viewBox="0 0 24 22" fill="none" xmlns="http://www.w3.org/2000/svg">
<path d="M7.18776 21.9992C11.1574 21.9992 14.3755 18.8129 14.3755 14.8824C14.3755 10.9519 11.1574 7.76562 7.18776 7.76562C3.21808 7.76562 0 10.9519 0 14.8824C0 18.8129 3.21808 21.9992 7.18776 21.9992Z" fill="#04E061"/>
<path d="M19.6558 21.1008C22.0546 21.1008 23.9991 19.1754 23.9991 16.8004C23.9991 14.4253 22.0546 12.5 19.6558 12.5C17.2571 12.5 15.3125 14.4253 15.3125 16.8004C15.3125 19.1754 17.2571 21.1008 19.6558 21.1008Z" fill="#FF4053"/>
<path d="M8.5627 6.83798C10.0471 6.83798 11.2505 5.64653 11.2505 4.1768C11.2505 2.70708 10.0471 1.51562 8.5627 1.51562C7.07833 1.51562 5.875 2.70708 5.875 4.1768C5.875 5.64653 7.07833 6.83798 8.5627 6.83798Z" fill="#965EEB"/>
<path d="M17.9689 11.5724C21.1964 11.5724 23.8129 8.98184 23.8129 5.78623C23.8129 2.59057 21.1964 0 17.9689 0C14.7414 0 12.125 2.59057 12.125 5.78623C12.125 8.98184 14.7414 11.5724 17.9689 11.5724Z" fill="#00AAFF"/>
</svg>
