<svg viewBox="0 0 24 24" fill="none" class="fill-main dark:fill-second" xmlns="http://www.w3.org/2000/svg">
<path d="M4.51148 0.0328369C2.2977 0.399708 0.545574 2.06111 0.0996721 4.20992C0.0052459 4.66589 0 5.04325 0 11.9981C0 18.9267 0.0052459 19.3355 0.0996721 19.781C0.535082 21.8879 2.20328 23.5178 4.34361 23.9266C4.66361 23.9895 5.98033 24 12.0289 24C18.9744 24 19.3521 23.9948 19.8085 23.9004C21.7915 23.4916 23.3285 22.0189 23.8846 19.9906L24 19.5713V11.9981V4.42481L23.8846 4.00553C23.3285 1.97725 21.7915 0.504528 19.8085 0.0957279C19.3521 0.00139046 18.9902 -0.00385094 11.9869 0.00139046C7.94754 0.00663185 4.58492 0.0223541 4.51148 0.0328369ZM13.6551 7.1973C13.8964 7.29688 14.0905 7.53273 14.1639 7.79478C14.2216 8.0149 14.1902 8.11448 12.821 12.213C11.2997 16.7884 11.3311 16.7045 10.8957 16.825C10.7803 16.8565 10.6072 16.867 10.5075 16.846C10.2505 16.7988 9.94098 16.5001 9.8623 16.2223C9.79934 15.9917 9.80459 15.9708 11.2 11.7884C12.3593 8.31364 12.6269 7.55369 12.758 7.40694C12.9889 7.14489 13.3403 7.06104 13.6551 7.1973ZM8.39869 8.60714C8.76066 8.85347 8.9023 9.2413 8.76066 9.62389C8.72918 9.70251 8.20459 10.2738 7.59082 10.8817L6.47869 11.9981L7.59082 13.1092C8.20459 13.7224 8.72918 14.2936 8.76066 14.3723C8.84984 14.6186 8.82361 14.9016 8.69246 15.0955C8.44066 15.4729 8.03148 15.6039 7.64328 15.4362C7.54885 15.3943 6.80918 14.6972 5.99607 13.8796C4.40131 12.2706 4.39607 12.2654 4.48525 11.7989C4.51672 11.6312 4.72131 11.4006 5.99607 10.1166C6.80918 9.29895 7.54885 8.6019 7.63279 8.55997C7.87934 8.44991 8.1941 8.47087 8.39869 8.60714ZM16.383 8.55997C16.4774 8.6019 17.217 9.29895 18.0302 10.1166C19.3049 11.4006 19.5095 11.6312 19.541 11.7989C19.6302 12.2654 19.6249 12.2706 18.0302 13.8796C17.217 14.6972 16.4774 15.3943 16.383 15.4362C15.9948 15.6039 15.5856 15.4729 15.3338 15.0955C15.2026 14.9016 15.1764 14.6186 15.2656 14.3723C15.297 14.2936 15.8216 13.7224 16.4354 13.1092L17.5475 11.9981L16.4354 10.8817C15.8216 10.2738 15.297 9.70251 15.2656 9.62389C15.1764 9.37757 15.2026 9.09455 15.3338 8.90063C15.5856 8.52328 15.9948 8.39226 16.383 8.55997Z" fill="#252729"/>
</svg>
