<svg viewBox="0 0 20 20" fill="none" xmlns="http://www.w3.org/2000/svg">
<path d="M16.3619 0H3.6381C1.62883 0 0 1.62883 0 3.6381V16.3619C0 18.3712 1.62883 20 3.6381 20H16.3619C18.3712 20 20 18.3712 20 16.3619V3.6381C20 1.62883 18.3712 0 16.3619 0Z" class="fill-main dark:fill-second"/>
<path d="M10.0012 12.7211C11.5055 12.7211 12.725 11.5016 12.725 9.99725C12.725 8.49293 11.5055 7.27344 10.0012 7.27344C8.49683 7.27344 7.27734 8.49293 7.27734 9.99725C7.27734 11.5016 8.49683 12.7211 10.0012 12.7211Z" class='dark:stroke-main stroke-white' stroke-width="1.5" stroke-miterlimit="10"/>
<path d="M12.7225 6.36552V12.0798C12.7225 12.5016 12.8901 12.9062 13.1884 13.2044C13.4866 13.5027 13.8912 13.6703 14.313 13.6703C14.6045 13.6732 14.8911 13.5945 15.1402 13.443C15.3893 13.2915 15.591 13.0733 15.7225 12.8131C16.2513 11.729 16.4595 10.5163 16.3225 9.3179C16.1712 7.997 15.6104 6.75654 14.7187 5.77032C13.827 4.78409 12.6492 4.10151 11.3502 3.81821C10.0512 3.5349 8.69608 3.66506 7.47475 4.19045C6.25342 4.71585 5.22704 5.61015 4.53941 6.74807C3.85178 7.88598 3.53736 9.21051 3.64018 10.5361C3.74301 11.8616 4.25794 13.1218 5.11282 14.1401C5.96771 15.1583 7.11972 15.8837 8.40747 16.2144C9.69522 16.5452 11.0542 16.4648 12.294 15.9846" class="dark:stroke-main stroke-white" stroke-width="1.5" stroke-miterlimit="10"/>
</svg>
