<svg class="fill-main dark:fill-second" viewBox="0 0 20 20" fill="none" xmlns="http://www.w3.org/2000/svg">
<g clip-path="url(#clip0_73_7274)">
<path d="M7.5 10C10.2614 10 12.5 7.76142 12.5 5C12.5 2.23858 10.2614 0 7.5 0C4.73858 0 2.5 2.23858 2.5 5C2.5 7.76142 4.73858 10 7.5 10Z" fill="#252729"/>
<path d="M10.8692 11.6641H4.13083C3.03567 11.6654 1.98575 12.101 1.21135 12.8754C0.43696 13.6498 0.00132319 14.6997 0 15.7949L0 19.9974H15V15.7949C14.9987 14.6997 14.563 13.6498 13.7886 12.8754C13.0143 12.101 11.9643 11.6654 10.8692 11.6641V11.6641Z" fill="#252729"/>
<path d="M17.4987 8.33593V5.83594H15.832V8.33593H13.332V10.0026H15.832V12.5026H17.4987V10.0026H19.9987V8.33593H17.4987Z" fill="#252729"/>
</g>
<defs>
<clipPath id="clip0_73_7274">
<rect width="20" height="20" fill="white"/>
</clipPath>
</defs>
</svg>
